<?xml version="1.0"?>
<svg width="16" height="16" xmlns="http://www.w3.org/2000/svg" xmlns:svg="http://www.w3.org/2000/svg" class="bi bi-exclamation-circle">
 <g class="layer">
  <title>Layer 1</title>
  <path d="m8,15a7,7 0 1 1 0,-14a7,7 0 0 1 0,14m0,1a8,8 0 1 0 0,-16a8,8 0 0 0 0,16" fill="#ff0000" id="svg_1"/>
  <path d="m7,11a1,1 0 1 1 2,0a1,1 0 0 1 -2,0m0.1,-6a0.91,0.91 0 1 1 1.8,0l-0.35,3.5a0.55,0.55 0 0 1 -1.1,0l-0.35,-3.5z" fill="#ff0000" id="svg_2" transform="matrix(1 0 0 1 0 0)"/>
 </g>
</svg>